# AST/ASF file generated using VICON BodyLanguage
# -----------------------------------------------
:version 1.10
:name VICON
:units
  mass 1.0
  length 0.45
  angle deg
:documentation
   .ast/.asf automatically generated from VICON data using
   VICON BodyBuilder and BodyLanguage model FoxedUp or BRILLIANT.MOD
:root
   order TX TY TZ RX RY RZ
   axis XYZ
   position 0 0 0  
   orientation 0 0 0 
:bonedata
  begin
     id 1 
     name lhipjoint
     direction 0.645893 -0.654526 0.392961 
     length 2.38111 
     axis 0 0 0  XYZ
  end
  begin
     id 2 
     name lfemur
     direction 0.34202 -0.939693 0  
     length 6.6822  
     axis 0 0 20  XYZ
    dof rx ry rz
    limits (-160.0 20.0)
           (-70.0 70.0)
           (-60.0 70.0)
  end
  begin
     id 3 
     name ltibia
     direction 0.34202 -0.939693 0   
     length 6.93904   
     axis 0 0 20   XYZ
    dof rx
    limits (-10.0 170.0)
  end
  begin
     id 4 
     name lfoot
     direction 0.0694967 -0.190941 0.979138   
     length 2.13616   
     axis -90 7.62852e-016 20   XYZ
    dof rx rz
    limits (-45.0 90.0)
           (-70.0 20.0)
  end
  begin
     id 5 
     name ltoes
     direction 1.535e-011 -4.2202e-011 1   
     length 1.07536   
     axis -90 7.62852e-016 20   XYZ
    dof rx
    limits (-90.0 20.0)
  end
  begin
     id 6 
     name rhipjoint
     direction -0.700219 -0.612087 0.367481   
     length 2.54621  
     axis 0 0 0  XYZ 
  end
  begin
     id 7 
     name rfemur
     direction -0.34202 -0.939693 0   
     length 6.55353   
     axis 0 0 -20   XYZ
    dof rx ry rz
    limits (-160.0 20.0)
           (-70.0 70.0)
           (-70.0 60.0)
  end
  begin
     id 8 
     name rtibia
     direction -0.34202 -0.939693 0   
     length 6.8736   
     axis 0 0 -20   XYZ
    dof rx
    limits (-10.0 170.0)
 end
 begin
     id 9 
     name rfoot
     direction -0.0679995 -0.186827 0.980037   
     length 2.1218  
     axis -90 -7.62852e-016 -20   XYZ
    dof rx rz
    limits (-45.0 90.0)
           (-20.0 70.0)
  end
  begin
     id 10 
     name rtoes
     direction -1.53589e-011 -4.21772e-011 1   
     length 1.06864   
     axis -90 -7.62852e-016 -20   XYZ
    dof rx
    limits (-90.0 20.0)
  end
  begin
     id 11 
     name lowerback
     direction -0.0416607 0.996347 -0.0745409   
     length 2.12205   
     axis 0 0 0   XYZ
    dof rx ry rz
    limits (-20.0 45.0)
           (-30.0 30.0)
           (-30.0 30.0)
  end
  begin
     id 12 
     name upperback
     direction -0.000153993 0.999276 -0.0380568   
     length 2.12759   
     axis 0 0 0   XYZ
    dof rx ry rz
    limits (-20.0 45.0)
           (-30.0 30.0)
           (-30.0 30.0)
  end
  begin
     id 13 
     name thorax
     direction 0.0187671 0.999821 -0.00241421   
     length 2.13704   
     axis 0 0 0   XYZ
    dof rx ry rz
    limits (-20.0 45.0)
           (-30.0 30.0)
           (-30.0 30.0)
  end
  begin
     id 14 
     name lowerneck
     direction 0.0268157 0.964865 0.261374   
     length 1.65253   
     axis 0 0 0   XYZ
    dof rx ry rz
    limits (-20.0 45.0)
           (-30.0 30.0)
           (-30.0 30.0)
  end
  begin
     id 15 
     name upperneck
     direction 0.00263774 0.939908 -0.341418   
     length 1.72375   
     axis 0 0 0   XYZ
    dof rx ry rz
    limits (-20.0 45.0)
           (-30.0 30.0)
           (-30.0 30.0)
  end
  begin
     id 16
     name head
     direction -0.00526001 0.989001 -0.147818  
     length 1.74878  
     axis 0 0 0   XYZ
    dof rx ry rz
    limits (-20.0 45.0)
           (-30.0 30.0)
           (-30.0 30.0)
  end
  begin
     id 17 
     name lclavicle
     direction 0.881214 0.461162 -0.103884  
     length 3.25108  
     axis 0 0 0   XYZ
    dof ry rz
    limits (-20.0 10.0)
           (0.0 20.0)
  end
  begin
     id 18 
     name lhumerus
     direction 1 -4.4899e-011 3.38092e-027   
     length 4.87408   
     axis 180 -30 -90   XYZ
    dof rx ry rz
    limits (-60.0 90.0)
           (-90.0 90.0)
           (-90.0 90.0)
  end
  begin
     id 19
     name lradius
     direction 1 -4.48931e-011 9.96288e-027   
     length 2.76729   
     axis 180 -30 -90   XYZ
    dof rx
    limits (-10.0 170.0)
  end
  begin
     id 20
     name lwrist
     direction 1 -4.4896e-011 1.50617e-026   
     length 1.38364   
     axis -9.31234e-015 90 90   XYZ
    dof ry
    limits (-180.0 0.0)
 end
  begin
     id 21 
     name lhand
     direction 1 -4.49038e-011 3.01286e-026   
     length 0.98922   
     axis -1.92217e-014 90 90   XYZ
    dof rx rz
    limits (-90.0 90.0)
           (-45.0 45.0)
  end
  begin
     id 22 
     name lfingers
     direction 1 -4.49051e-011 6.02588e-026   
     length 0.797535   
     axis -3.84436e-014 90 90   XYZ
    dof rx
    limits (0.0 90.0)
  end
  begin
     id 23
     name lthumb
     direction 0.707107 -6.34901e-011 0.707107   
     length 1.14511   
     axis -90 45 2.19363e-014   XYZ
    dof rx rz
    limits (-45.0 45.0)
           (-45.0 45.0)
  end
  begin
     id 24 
     name rclavicle
     direction -0.893894 0.441652 -0.0767889   
     length 3.29361  
     axis 0 0 0   XYZ 
    dof ry rz
    limits (-10.0 20.0)
           (-20.0 0.0)
  end
  begin
     id 25 
     name rhumerus
     direction -1 -4.48945e-011 8.0491e-028  
     length 4.71404   
     axis 180 30 90   XYZ
    dof rx ry rz
    limits (-90.0 60.0)
           (-90.0 90.0)
           (-90.0 90.0)
  end
  begin
     id 26 
     name rradius
     direction -1 -4.48986e-011 9.27795e-027   
     length 2.83468   
     axis 180 30 90   XYZ
    dof rx
    limits (-10.0 170.0)
  end
  begin
     id 27 
     name rwrist
     direction -1 -4.49029e-011 1.5064e-026   
     length 1.41734   
     axis -9.31234e-015 -90 -90   XYZ
    dof ry
    limits (-180.0 0.0)
  end
  begin
     id 28
     name rhand
     direction -1 -4.48857e-011 3.01165e-026   
     length 0.868195   
     axis -1.92217e-014 -90 -90   XYZ
    dof rx rz
    limits (-90.0 90.0)
           (-45.0 45.0)
  end
  begin
     id 29
     name rfingers
     direction -1 -4.49048e-011 6.02585e-026   
     length 0.699961   
     axis -3.84436e-014 -90 -90   XYZ
    dof rx
    limits (0.0 90.0)
  end
  begin
     id 30
     name rthumb
     direction -0.707107 -6.34854e-011 0.707107   
     length 1.00501   
     axis -90 -45 -2.19363e-014   XYZ
    dof rx rz
    limits (-45.0 45.0)
           (-45.0 45.0)
  end
:hierarchy
  begin
    root lhipjoint rhipjoint lowerback
    lhipjoint lfemur
    lfemur ltibia
    ltibia lfoot
    lfoot ltoes
    rhipjoint rfemur
    rfemur rtibia
    rtibia rfoot
    rfoot rtoes
    lowerback upperback
    upperback thorax
    thorax lowerneck lclavicle rclavicle
    lowerneck upperneck
    upperneck head
    lclavicle lhumerus
    lhumerus lradius
    lradius lwrist
    lwrist lhand lthumb
    lhand lfingers
    rclavicle rhumerus
    rhumerus rradius
    rradius rwrist
    rwrist rhand rthumb
    rhand rfingers
  end

#!OML:ASF H:\ManfredObstacles\Project 1\Capture day 2\Session 1\male.ASF
:FULLY-SPECIFIED
:DEGREES
97
root 1.23509 15.8456 17.4514 -169.985 -2.66679 177.078
lowerback 5.23074 -1.26595 -4.90623
upperback 4.83433 -2.21298 -0.406653
thorax 2.22205 -1.39457 2.38915
lowerneck -35.2396 -0.267706 2.85152
upperneck 39.7191 -0.0152684 -0.165857
head 22.5077 1.0665 -0.327572
rclavicle -6.36111e-015 1.13307e-014
rhumerus -47.2707 -26.4933 -55.8305
rradius 18.4808
rwrist 57.7337
rhand -6.05184 -8.20151
rfingers 7.12502
rthumb 19.7825 -37.2148
lclavicle -6.36111e-015 1.13307e-014
lhumerus -31.8235 -2.46169 76.5277
lradius 27.326
lwrist -44.5963
lhand -9.39974 8.70022
lfingers 7.12502
lthumb 16.5616 38.0135
rfemur -31.4693 4.61543 18.49
rtibia 42.7524
rfoot -16.0439 -22.5733
rtoes -25.463
lfemur -25.5339 -4.70927 -26.9035
ltibia 31.3404
lfoot -3.55256 16.3374
ltoes -0.0364918
98
root 1.24606 15.8364 17.3934 -169.621 -2.82652 176.972
lowerback 5.3356 -1.25474 -4.91486
upperback 5.01629 -2.22284 -0.427735
thorax 2.3527 -1.41542 2.37123
lowerneck -35.3569 -0.276422 2.79775
upperneck 39.5078 -0.0713866 -0.154155
head 22.3845 1.01633 -0.336986
rclavicle 2.42517e-014 1.41137e-014
rhumerus -49.1935 -27.6259 -53.079
rradius 17.7745
rwrist 60.2658
rhand -5.97838 -8.19736
rfingers 7.12502
rthumb 19.8531 -37.2034
lclavicle 2.42517e-014 1.41137e-014
lhumerus -32.3152 -2.50636 75.7723
lradius 26.8825
lwrist -45.2599
lhand -9.28682 8.59796
lfingers 7.12502
lthumb 16.6703 37.9021
rfemur -31.5184 4.91581 18.2893
rtibia 41.6738
rfoot -15.2969 -22.5292
rtoes -24.4351
lfemur -25.8103 -4.76445 -26.9588
ltibia 31.5786
lfoot -3.93173 16.4495
ltoes 0.0239002
99
root 1.25753 15.8271 17.3368 -169.239 -2.95865 176.848
lowerback 5.44122 -1.22907 -4.92645
upperback 5.18533 -2.21319 -0.455825
thorax 2.46798 -1.42562 2.34752
lowerneck -35.4209 -0.332365 2.65537
upperneck 39.3357 -0.161896 -0.0654469
head 22.2757 0.9571 -0.297025
rclavicle 1.63997e-014 1.64991e-014
rhumerus -51.3476 -28.7631 -50.0266
rradius 17.1061
rwrist 62.8492
rhand -5.90045 -8.24165
rfingers 7.12502
rthumb 19.9281 -37.2399
lclavicle 1.63997e-014 1.64991e-014
lhumerus -32.8964 -2.50621 74.9677
lradius 26.4348
lwrist -45.9614
lhand -9.15279 8.43674
lfingers 7.12502
lthumb 16.7994 37.73
rfemur -31.5877 5.1269 18.1135
rtibia 40.8347
rfoot -14.4039 -22.6232
rtoes -22.7943
lfemur -26.0957 -4.81811 -27.0262
ltibia 31.7887
lfoot -4.2886 16.5698
ltoes 0.0759285
100
root 1.26979 15.8175 17.282 -168.843 -3.07853 176.709
lowerback 5.54842 -1.19235 -4.9387
upperback 5.35676 -2.18986 -0.490951
thorax 2.58368 -1.42936 2.31648
lowerneck -35.5364 -0.394401 2.50714
upperneck 39.1857 -0.25974 0.025474
head 22.1985 0.895548 -0.256695
rclavicle 3.63776e-014 5.56597e-015
rhumerus -53.7167 -29.86 -46.6979
rradius 16.4935
rwrist 65.4878
rhand -5.8279 -8.32013
rfingers 7.12502
rthumb 19.9978 -37.3111
lclavicle 3.63776e-014 5.56597e-015
lhumerus -33.5363 -2.49796 74.1254
lradius 25.9932
lwrist -46.5903
lhand -8.97573 8.27191
lfingers 7.12502
lthumb 16.9698 37.5506
rfemur -31.6722 5.22617 17.9754
rtibia 40.2322
rfoot -13.5617 -22.8164
rtoes -20.6814
lfemur -26.3932 -4.88108 -27.1018
ltibia 31.9822
lfoot -4.62771 16.704
ltoes 0.126403
101
root 1.28256 15.8071 17.2293 -168.419 -3.18501 176.559
lowerback 5.65857 -1.15232 -4.95619
upperback 5.51622 -2.16199 -0.522725
thorax 2.68549 -1.43016 2.29205
lowerneck -35.6573 -0.464294 2.33769
upperneck 39.0517 -0.355059 0.123956
head 22.1352 0.834124 -0.207539
rclavicle 1.60022e-014 9.93923e-015
rhumerus -56.2917 -30.8309 -43.1071
rradius 15.9517
rwrist 68.1853
rhand -5.75384 -8.42733
rfingers 7.12502
rthumb 20.069 -37.4108
lclavicle 1.60022e-014 9.93923e-015
lhumerus -34.2597 -2.42138 73.2351
lradius 25.5557
lwrist -47.1932
lhand -8.77602 8.10952
lfingers 7.12502
lthumb 17.162 37.3716
rfemur -31.7877 5.21314 17.8787
rtibia 39.845
rfoot -12.9688 -23.0457
rtoes -18.3609
lfemur -26.7282 -4.97916 -27.1777
ltibia 32.1795
lfoot -4.92168 16.8838
ltoes 0.156017
102
root 1.29599 15.7957 17.1791 -167.976 -3.29278 176.402
lowerback 5.78665 -1.11601 -4.97688
upperback 5.6627 -2.13989 -0.546093
thorax 2.76488 -1.43303 2.27912
lowerneck -35.8316 -0.501367 2.23282
upperneck 38.8921 -0.412435 0.136756
head 22.0688 0.779547 -0.206435
rclavicle -3.17062e-014 4.37326e-015
rhumerus -59.0767 -31.6647 -39.2103
rradius 15.4651
rwrist 71.0397
rhand -5.70425 -8.54658
rfingers 7.12502
rthumb 20.1166 -37.5251
lclavicle -3.17062e-014 4.37326e-015
lhumerus -35.0738 -2.31916 72.3207
lradius 25.1264
lwrist -47.7002
lhand -8.58403 7.99068
lfingers 7.12502
lthumb 17.3468 37.2366
rfemur -31.9306 5.0989 17.8218
rtibia 39.6343
rfoot -12.7476 -23.2656
rtoes -16.1254
lfemur -27.1047 -5.13227 -27.2454
ltibia 32.3989
lfoot -5.17255 17.1185
ltoes 0.17692
